<svg width="22" height="22" viewBox="0 0 22 22" fill="none" xmlns="http://www.w3.org/2000/svg">
<path d="M19.9884 9.20471H19.25V9.16667H11V12.8333H16.1805C15.4248 14.9678 13.3939 16.5 11 16.5C7.96262 16.5 5.5 14.0374 5.5 11C5.5 7.96262 7.96262 5.5 11 5.5C12.402 5.5 13.6776 6.02892 14.6488 6.89287L17.2416 4.30008C15.6044 2.77429 13.4145 1.83333 11 1.83333C5.93771 1.83333 1.83333 5.93771 1.83333 11C1.83333 16.0623 5.93771 20.1667 11 20.1667C16.0623 20.1667 20.1667 16.0623 20.1667 11C20.1667 10.3854 20.1034 9.78542 19.9884 9.20471Z" fill="#FFC107"/>
<path d="M2.89025 6.73337L5.90196 8.94208C6.71688 6.9245 8.69046 5.5 11 5.5C12.402 5.5 13.6776 6.02892 14.6488 6.89287L17.2416 4.30008C15.6044 2.77429 13.4145 1.83333 11 1.83333C7.47908 1.83333 4.42567 3.82112 2.89025 6.73337Z" fill="#FF3D00"/>
<path d="M11 20.1667C13.3678 20.1667 15.5192 19.2605 17.1458 17.787L14.3087 15.3862C13.3884 16.0834 12.2444 16.5 11 16.5C8.61575 16.5 6.59129 14.9797 5.82863 12.8581L2.83938 15.1612C4.35646 18.1298 7.43738 20.1667 11 20.1667Z" fill="#4CAF50"/>
<path d="M19.9884 9.20471H19.25V9.16667H11V12.8333H16.1805C15.8175 13.8586 15.158 14.7428 14.3073 15.3867C14.3078 15.3863 14.3083 15.3863 14.3087 15.3858L17.1458 17.7865C16.945 17.969 20.1667 15.5833 20.1667 11C20.1667 10.3854 20.1034 9.78542 19.9884 9.20471Z" fill="#1976D2"/>
</svg>
